#!OML:ASF E:\Mandelcareful walks\Project 1\Capture day 1\Session 1\Subject1.ASF
:FULLY-SPECIFIED
:DEGREES
1336
root -4.09944 14.9286 2.27394 17.8193 23.3637 5.97677
lowerback 30.6838 -0.916902 1.87259
upperback 8.46338 -0.636993 -2.55641
thorax -7.3121 -0.205442 -3.74373
lowerneck -21.6805 16.4902 9.37011
upperneck 10.317 25.081 -25.572
head 11.8486 9.90475 -5.6686
rclavicle -2.10712e-014 4.96962e-015
rhumerus -23.0431 21.9636 -91.0302
rradius 42.4804
rwrist -60.5127
rhand 6.75772 -41.3138
rfingers 7.12502
rthumb 32.045 -68.5107
lclavicle -2.10712e-014 4.96962e-015
lhumerus -164.225 -99.7082 257.513
lradius 56.1431
lwrist 3.3187
lhand -18.4608 -9.6452
lfingers 7.12502
lthumb 7.82556 20.19
rfemur -47.8473 -12.3438 6.6925
rtibia 64.2453
rfoot -23.9852 -12.8835
rtoes -21.6466
lfemur -55.9389 25.7064 -19.9016
ltibia 55.3943
lfoot -10.5407 17.3643
ltoes -4.35586
1337
root -3.99779 14.8919 2.30238 17.7431 23.7386 5.75753
lowerback 30.7855 -0.680179 1.79454
upperback 8.31609 -0.394798 -2.86464
thorax -7.509 -0.0950506 -4.13823
lowerneck -21.3099 16.5848 9.93454
upperneck 10.1703 25.0268 -25.5712
head 11.7903 9.94389 -5.77873
rclavicle 3.29983e-014 3.37934e-015
rhumerus -23.2222 21.0672 -91.3792
rradius 41.7187
rwrist -60.5008
rhand 7.13881 -41.2232
rfingers 7.12502
rthumb 32.4078 -68.3465
lclavicle 3.29983e-014 3.37934e-015
lhumerus -161.951 -98.5113 254.732
lradius 56.2619
lwrist 4.04219
lhand -17.8944 -10.1363
lfingers 7.12502
lthumb 8.37228 19.6778
rfemur -47.4997 -12.4448 6.50883
rtibia 64.5166
rfoot -24.6106 -12.8818
rtoes -20.7403
lfemur -56.1546 25.3767 -19.7326
ltibia 56.2306
lfoot -11.252 16.538
ltoes -1.47973
1338
root -3.89484 14.8717 2.33547 17.2933 23.9098 5.55066
lowerback 31.3544 -0.447855 1.22477
upperback 8.25289 -0.280712 -2.97641
thorax -7.83782 -0.040962 -3.98577
lowerneck -20.9079 16.827 10.2971
upperneck 9.87833 25.3106 -25.9277
head 11.7844 10.1119 -5.89184
rclavicle -3.26007e-014 5.14852e-014
rhumerus -23.3043 20.9394 -91.5883
rradius 41.051
rwrist -60.3181
rhand 7.69261 -41.0207
rfingers 7.12502
rthumb 32.9347 -68.0347
lclavicle -3.26007e-014 5.14852e-014
lhumerus -167.502 -99.3485 261.304
lradius 54.7923
lwrist 3.2618
lhand -17.5467 -10.2071
lfingers 7.12502
lthumb 8.7078 19.5933
rfemur -46.7204 -12.2198 6.20969
rtibia 64.7747
rfoot -25.1907 -13.1192
rtoes -20.4475
lfemur -55.9129 25.1677 -19.4339
ltibia 57.2874
lfoot -11.8637 15.7837
ltoes -0.849298
1339
root -3.78151 14.8508 2.36066 17.2113 24.0834 5.30515
lowerback 31.4773 -0.179089 0.665951
upperback 8.13189 -0.118549 -2.98653
thorax -8.02158 0.0356149 -3.73542
lowerneck -20.6454 16.9522 10.1544
upperneck 9.64476 25.4659 -25.8852
head 11.6498 10.2224 -5.82279
rclavicle 4.27387e-015 -4.14466e-014
rhumerus -23.3665 20.8517 -91.6874
rradius 40.4727
rwrist -60.1619
rhand 7.57138 -41.2865
rfingers 7.12502
rthumb 32.8194 -68.3247
lclavicle 4.27387e-015 -4.14466e-014
lhumerus -171.378 -100.183 265.901
lradius 53.7117
lwrist 2.68989
lhand -17.043 -10.6499
lfingers 7.12502
lthumb 9.19384 19.1297
rfemur -46.3865 -12.0052 6.00936
rtibia 64.8756
rfoot -25.1278 -14.0854
rtoes -22.0825
lfemur -56.2541 24.7783 -19.2491
ltibia 58.3437
lfoot -12.4644 15.667
ltoes -0.426198
1340
root -3.65447 14.7735 2.37801 17.4987 24.5196 4.98905
lowerback 31.197 0.0625628 0.428372
upperback 7.89845 0.10804 -2.94842
thorax -8.14239 0.137189 -3.63535
lowerneck -20.3456 16.9133 9.9821
upperneck 9.48374 25.3766 -25.7011
head 11.4563 10.232 -5.77265
rclavicle -4.22417e-014 1.68967e-014
rhumerus -23.5206 20.0552 -91.6661
rradius 39.8001
rwrist -59.7714
rhand 7.64208 -41.4407
rfingers 7.12502
rthumb 32.8867 -68.4647
lclavicle -4.22417e-014 1.68967e-014
lhumerus -172.376 -100.032 266.835
lradius 53.7059
lwrist 2.97255
lhand -16.6859 -11.02
lfingers 7.12502
lthumb 9.53842 18.7441
rfemur -46.6403 -12.0711 5.85065
rtibia 65.1742
rfoot -24.9164 -14.8637
rtoes -23.613
lfemur -57.3395 25.074 -20.4635
ltibia 59.5827
lfoot -11.9915 15.7534
ltoes -8.47696
1341
root -3.52712 14.784 2.39049 17.7472 25.0237 4.53256
lowerback 30.892 0.280655 0.356207
upperback 7.66806 0.356038 -2.91547
thorax -8.24607 0.247404 -3.64424
lowerneck -20.0135 16.8985 10.0247
upperneck 9.33418 25.3026 -25.6409
head 11.32 10.2466 -5.79378
rclavicle 1.68967e-014 -3.30976e-014
rhumerus -23.6792 18.9284 -91.6356
rradius 38.968
rwrist -59.338
rhand 8.26558 -41.2376
rfingers 7.12502
rthumb 33.4795 -68.1354
lclavicle 1.68967e-014 -3.30976e-014
lhumerus -173.807 -99.6144 268.523
lradius 53.4144
lwrist 3.28997
lhand -16.671 -10.8916
lfingers 7.12502
lthumb 9.55276 18.8718
rfemur -46.3522 -11.8871 5.69658
rtibia 65.0471
rfoot -25.8221 -14.1444
rtoes -20.0877
lfemur -58.3345 24.3576 -19.907
ltibia 60.6017
lfoot -13.3035 15.2153
ltoes -2.94048
1342
root -3.39739 14.7843 2.40381 17.8061 25.652 4.02648
lowerback 30.7545 0.25934 0.1752
upperback 7.57899 0.290434 -2.75947
thorax -8.28944 0.217079 -3.33597
lowerneck -20.0004 17.1219 9.70952
upperneck 9.09188 25.6404 -25.6404
head 11.2478 10.411 -5.65516
rclavicle -5.86415e-014 -1.51076e-014
rhumerus -23.5773 18.7813 -91.5647
rradius 38.1584
rwrist -59.2684
rhand 8.43134 -41.1267
rfingers 7.12502
rthumb 33.637 -67.9903
lclavicle -5.86415e-014 -1.51076e-014
lhumerus -174.155 -100.008 269.188
lradius 52.8021
lwrist 3.3072
lhand -16.262 -10.8609
lfingers 7.12502
lthumb 9.94744 18.8841
rfemur -45.763 -11.7988 5.54
rtibia 64.9659
rfoot -27.393 -12.5822
rtoes -13.2626
lfemur -59.0349 23.8893 -19.6441
ltibia 61.569
lfoot -14.1915 14.8372
ltoes -1.70852
1343
root -3.24848 14.7852 2.41675 17.8085 26.1281 3.73828
lowerback 30.6761 0.269366 0.234289
upperback 7.59721 0.305445 -2.95376
thorax -8.22848 0.225445 -3.59429
lowerneck -20.2538 17.258 9.86913
upperneck 9.01988 25.7349 -25.5517
head 11.2873 10.4492 -5.60428
rclavicle -3.60049e-014 7.94269e-014
rhumerus -23.3932 18.1215 -91.7475
rradius 37.3598
rwrist -58.7593
rhand 8.42665 -41.1449
rfingers 7.12502
rthumb 33.6326 -68.0095
lclavicle -3.60049e-014 7.94269e-014
lhumerus -173.593 -99.8491 268.782
lradius 51.8713
lwrist 3.08884
lhand -15.5633 -11.0261
lfingers 7.12502
lthumb 10.6214 18.6854
rfemur -45.1191 -12.0428 5.42837
rtibia 64.3672
rfoot -27.023 -13.6108
rtoes -15.5386
lfemur -59.3092 23.276 -19.6766
ltibia 62.3561
lfoot -14.9958 14.844
ltoes -2.12174
1344
root -3.09665 14.8021 2.42697 17.8283 26.5213 3.53676
lowerback 30.5954 0.235356 0.520238
upperback 7.58027 0.301249 -3.4409
thorax -8.20331 0.220878 -4.31246
lowerneck -20.3124 17.2808 10.2487
upperneck 8.93226 25.5507 -25.2546
head 11.2216 10.4015 -5.59948
rclavicle 4.31363e-014 -2.54444e-014
rhumerus -23.1734 16.6288 -92.2733
rradius 36.2337
rwrist -57.6248
rhand 8.63867 -41.1943
rfingers 7.12502
rthumb 33.834 -68.0148
lclavicle 4.31363e-014 -2.54444e-014
lhumerus -177.875 -100.787 273.376
lradius 50.7706
lwrist 1.64746
lhand -14.6753 -11.2128
lfingers 7.12502
lthumb 11.4779 18.453
rfemur -44.2222 -11.751 4.75045
rtibia 63.9984
rfoot -28.1123 -12.1453
rtoes -9.90479
lfemur -59.412 22.5717 -19.7103
ltibia 62.9814
lfoot -15.7485 14.9064
ltoes -1.72776
1345
root -2.94891 14.7996 2.43899 17.5065 26.9755 3.10418
lowerback 30.9005 0.476134 0.423022
upperback 7.46425 0.567166 -3.45733
thorax -8.46062 0.341325 -4.38502
lowerneck -20.101 17.096 10.3692
upperneck 9.05683 25.2208 -24.9729
head 11.1279 10.2847 -5.62367
rclavicle -3.67752e-014 6.69904e-014
rhumerus -23.1969 14.5794 -92.169
rradius 35.021
rwrist -56.4231
rhand 9.02062 -41.0167
rfingers 7.12502
rthumb 34.1969 -67.7565
lclavicle -3.67752e-014 6.69904e-014
lhumerus -179.717 -100.046 275.282
lradius 50.467
lwrist 2.22714
lhand -14.5057 -10.7447
lfingers 7.12502
lthumb 11.6414 18.9119
rfemur -43.4442 -11.8194 4.9468
rtibia 63.149
rfoot -26.19 -15.4848
rtoes -19.9732
lfemur -59.3166 22.1341 -19.4373
ltibia 63.6001
lfoot -16.3849 14.5727
ltoes -0.741715
1346
root -2.80798 14.8081 2.45515 17.3593 27.2503 2.52738
lowerback 30.8987 0.738466 -0.0359563
upperback 7.33745 0.769533 -3.28761
thorax -8.59864 0.437909 -4.00138
lowerneck -19.9588 17.2036 10.2652
upperneck 8.98933 25.3407 -24.7889
head 11.0483 10.3668 -5.52262
rclavicle -3.25013e-014 2.87244e-014
rhumerus -23.1856 13.4419 -91.9866
rradius 33.9405
rwrist -55.2105
rhand 10.1039 -40.3202
rfingers 7.12502
rthumb 35.2249 -66.8234
lclavicle -3.25013e-014 2.87244e-014
lhumerus -179.449 -99.4084 274.934
lradius 50.2985
lwrist 3.11272
lhand -13.8851 -10.0765
lfingers 7.12502
lthumb 12.2399 19.5453
rfemur -42.393 -11.1194 4.44289
rtibia 62.7981
rfoot -28.3337 -12.1545
rtoes -9.95091
lfemur -59.4835 22.2149 -19.386
ltibia 64.1168
lfoot -16.7993 14.1185
ltoes -0.862598
